<svg xmlns="http://www.w3.org/2000/svg" width="19.862" height="19.862" viewBox="0 0 19.862 19.862"><defs><style>.a{fill:#fff;}</style></defs><path class="a" d="M18.931,378.839h-7.04c-.014-.058-.064-.043-.106-.049a3.084,3.084,0,0,1-1.152-.459,3.52,3.52,0,0,1-1.492-1.923A1.933,1.933,0,0,0,9,375.92V361.9c.058-.021.036-.07.043-.106a3.23,3.23,0,0,1,.459-1.173,3.282,3.282,0,0,1,2.834-1.631c4.389-.014,8.785-.007,13.175-.007a3.113,3.113,0,0,1,1.052.183,3.513,3.513,0,0,1,2.3,3.263c-.021,4.3-.007,8.595,0,12.892a3.415,3.415,0,0,1-.516,1.894,3.49,3.49,0,0,1-1.894,1.477,4.63,4.63,0,0,0-.537.149H22.04a.779.779,0,0,1-.014-.127q0-3.612-.007-7.231c0-.127.043-.149.156-.149,1,.007,1.986,0,2.983.007.134,0,.184-.021.175-.17-.007-1-.007-1.986,0-2.983,0-.127-.029-.17-.163-.17-.742.007-1.477,0-2.219,0h-.8c-.058,0-.12.021-.12-.078.007-.474-.029-.954.021-1.428a.742.742,0,0,1,.8-.707c.777.029,1.555.007,2.331.007.113,0,.163-.014.163-.156q-.01-1.506,0-3.011c0-.113-.021-.156-.149-.149-.827.007-1.661,0-2.488.007a3.263,3.263,0,0,0-1.93.615,4.325,4.325,0,0,0-1.781,2.919,11.386,11.386,0,0,0-.058,1.838c0,.127-.043.156-.156.156-.707-.007-1.414,0-2.127-.007-.113,0-.156.029-.156.149q.01,1.506,0,3.011c0,.127.036.163.163.156.693-.007,1.386,0,2.078-.007.149,0,.2.021.2.191Q18.927,375.181,18.931,378.839Z" transform="translate(-9 -358.977)"/></svg>