<svg xmlns="http://www.w3.org/2000/svg" width="731.784" height="756.991" viewBox="0 0 731.784 756.991"><defs><style>.a{fill:#f9f9f9;}</style></defs><g transform="translate(241.694 -8.335) rotate(25)"><g transform="translate(9 5)"><path class="a" d="M54.593,5A45.93,45.93,0,0,0,9,50.593V545.605A45.93,45.93,0,0,0,54.593,591.2H432.365a45.93,45.93,0,0,0,45.593-45.593V394.782l63.709-244.453c5.962-22.913-7.388-47-30.328-53.328l-33.381-9.363V50.593A45.93,45.93,0,0,0,432.365,5Zm0,39.08H432.365a6.114,6.114,0,0,1,6.513,6.513V545.605a6.114,6.114,0,0,1-6.513,6.513H54.593a6.114,6.114,0,0,1-6.513-6.513V50.593A6.114,6.114,0,0,1,54.593,44.08ZM98.151,70.133a19.542,19.542,0,0,0-17.5,19.54v78.16a19.541,19.541,0,0,0,19.538,19.54H386.772a19.542,19.542,0,0,0,19.54-19.538V89.673a19.541,19.541,0,0,0-19.538-19.54H100.186a19.539,19.539,0,0,0-2.035,0Zm21.575,39.08H367.232v39.08H119.726Zm358.232,19.133,22.8,6.31h.2c2.166.6,3.615,2.96,2.85,5.9l-25.85,99.532ZM98.151,291.586a19.566,19.566,0,1,0,2.035,39.08H210.913a19.541,19.541,0,1,0,0-39.082l-110.726,0a19.543,19.543,0,0,0-2.035,0Zm175.859,0a19.566,19.566,0,1,0,2.035,39.08H386.772a19.541,19.541,0,1,0,0-39.082l-110.726,0a19.543,19.543,0,0,0-2.035,0ZM98.151,356.719a19.566,19.566,0,0,0,2.035,39.08H210.913a19.541,19.541,0,1,0,0-39.082l-110.726,0a19.56,19.56,0,0,0-2.035,0Zm175.859,0a19.566,19.566,0,1,0,2.035,39.08H386.772a19.541,19.541,0,1,0,0-39.082l-110.726,0a19.56,19.56,0,0,0-2.035,0ZM98.151,421.852a19.566,19.566,0,1,0,2.035,39.08H386.772a19.541,19.541,0,1,0,0-39.082l-286.586,0a19.552,19.552,0,0,0-2.035,0Zm0,65.133a19.566,19.566,0,0,0,2.035,39.08H386.772a19.541,19.541,0,1,0,0-39.082l-286.586,0a19.535,19.535,0,0,0-2.035,0Z" transform="translate(-9 -5)"/></g></g></svg>