<svg xmlns="http://www.w3.org/2000/svg" width="433.024" height="474.13" viewBox="0 0 433.024 474.13"><defs><style>.a{fill:#ff8000;}.b{fill:#fff;}.c{fill:#13007c;}</style></defs><g transform="translate(-15.662 -0.7)"><path class="a" d="M234.361,75.426,228.116,46.6a7.47,7.47,0,0,0-2.882-3.843c-1.441-.961-2.882-.961-4.8-.961l-29.783,6.725a7.47,7.47,0,0,0-3.843,2.882,7.139,7.139,0,0,0-.961,4.323c.961,3.363,3.843,5.284,7.206,4.323l14.892-3.363-.961,1.441L163.265,124.9h-.48L91.209,100.886c-.48,0-1.441-.48-1.922-.48-1.922,0-3.363.961-4.8,2.4L26.839,176.785c-1.921,2.4-1.441,6.245.961,8.647a7.748,7.748,0,0,0,4.323,1.441,4.9,4.9,0,0,0,3.843-2.4l55.723-70.615h.48l72.056,24.5c2.4.961,5.284,0,7.206-2.4l47.557-73.017,3.363,14.892a5.984,5.984,0,0,0,6.725,4.8h.48A6.368,6.368,0,0,0,234.361,75.426Z" transform="translate(89.325 156.334)"/><path class="b" d="M65.023,53.4A4.92,4.92,0,0,0,62.141,51a3.946,3.946,0,0,0-3.363.48l-9.127,4.8-4.8-9.127a4.92,4.92,0,0,0-2.882-2.4,3.946,3.946,0,0,0-3.363.48,4.92,4.92,0,0,0-2.4,2.882,3.946,3.946,0,0,0,.48,3.363l4.8,9.127-9.127,4.8c-2.4,1.441-3.363,4.323-1.921,6.245a4.859,4.859,0,0,0,6.245,1.922l9.127-4.8,4.8,9.127a4.92,4.92,0,0,0,2.882,2.4c1.441.48,2.4,0,3.843-.48a4.92,4.92,0,0,0,2.4-2.882c.48-1.441,0-2.4-.48-3.843l-4.8-9.127,9.127-4.8A4.022,4.022,0,0,0,65.023,53.4Z" transform="translate(104.943 166.827)"/><path class="b" d="M81.405,48.467a3.946,3.946,0,0,0-.48-3.363,4.92,4.92,0,0,0-2.882-2.4,3.946,3.946,0,0,0-3.363.48l-9.127,4.8-4.8-9.127a4.92,4.92,0,0,0-2.882-2.4,3.946,3.946,0,0,0-3.363.48,4.92,4.92,0,0,0-2.4,2.882,3.946,3.946,0,0,0,.48,3.363l4.8,9.127-9.127,4.8A4.92,4.92,0,0,0,45.858,60a3.946,3.946,0,0,0,.48,3.363c.961,2.4,4.323,2.882,6.245,1.922l9.127-4.8,4.8,9.127a4.92,4.92,0,0,0,2.882,2.4c1.441.48,2.4,0,3.843-.48a4.92,4.92,0,0,0,2.4-2.882,3.946,3.946,0,0,0-.48-3.363l-4.8-9.127,9.127-4.8A10.049,10.049,0,0,0,81.405,48.467Z" transform="translate(165.42 135.256)"/><path class="b" d="M96.6,73.365A3.946,3.946,0,0,0,96.123,70a4.92,4.92,0,0,0-2.882-2.4,3.946,3.946,0,0,0-3.363.48l-9.127,4.8-4.8-9.127c-1.441-2.4-4.323-3.363-6.245-1.921-2.4,1.441-3.363,4.323-1.922,6.245l4.8,9.127-9.127,4.8c-2.4,1.441-3.363,4.323-1.922,6.245a4.859,4.859,0,0,0,6.245,1.922l9.127-4.8,4.8,9.127a4.92,4.92,0,0,0,2.882,2.4c1.441.48,2.4,0,3.843-.48a4.92,4.92,0,0,0,2.4-2.882,3.946,3.946,0,0,0-.48-3.363l-4.8-9.127,9.127-4.8C95.643,75.767,96.123,74.806,96.6,73.365Z" transform="translate(223.239 229.971)"/><path class="b" d="M75.786,77.746c.48-1.441,0-2.4-.48-3.843a4.92,4.92,0,0,0-2.882-2.4c-1.441-.48-2.4,0-3.843.48l-9.127,4.8-4.8-9.127c-1.441-2.4-4.323-3.363-6.245-1.922-2.4,1.441-3.363,4.323-1.922,6.245l4.8,9.127-9.127,4.8a4.92,4.92,0,0,0-2.4,2.882,3.946,3.946,0,0,0,.48,3.363,4.859,4.859,0,0,0,6.245,1.922l9.127-4.8,4.8,9.127a4.92,4.92,0,0,0,2.882,2.4c1.441.48,2.4,0,3.843-.48,2.4-1.441,3.363-4.323,1.921-6.245l-4.8-9.127,9.127-4.8C74.825,80.147,75.305,79.187,75.786,77.746Z" transform="translate(142.218 244.805)"/><path class="b" d="M100.047,53.936A17.015,17.015,0,0,0,89,33.28a14.809,14.809,0,0,0-4.8-.48A16.431,16.431,0,0,0,68.342,44.809,14.331,14.331,0,0,0,69.783,57.3a17.814,17.814,0,0,0,9.608,8.166,14.331,14.331,0,0,0,12.49-1.441A18.833,18.833,0,0,0,100.047,53.936Zm-12.49,2.4a9.05,9.05,0,0,1-3.843.961,4.331,4.331,0,0,1-2.4-.48,7.632,7.632,0,0,1-4.8-3.843,7.053,7.053,0,0,1-.48-6.245,8.053,8.053,0,1,1,15.372,4.8A7.632,7.632,0,0,1,87.557,56.338Z" transform="translate(248.618 122.1)"/><path class="c" d="M103.236,118.908h0c0-.48-2.882-36.508-48.518-36.508C8.6,82.4,6.2,118.908,6.2,119.389v10.568a5.331,5.331,0,0,0,5.284,5.284H97.952a5.331,5.331,0,0,0,5.284-5.284Z" transform="translate(15.33 310.766)"/><path class="c" d="M35.019,123.2c13.45,0,24.019-12.009,24.019-26.9S47.989,69.4,35.019,69.4C21.568,69.4,11,81.409,11,96.3S22.049,123.2,35.019,123.2Z" transform="translate(33.588 261.317)"/><path class="c" d="M170.236,118.908h0c0-.48-2.882-36.508-48.518-36.508C75.6,82.4,73.2,118.908,73.2,119.389v10.568a5.331,5.331,0,0,0,5.284,5.284h86.467a5.331,5.331,0,0,0,5.284-5.284Z" transform="translate(270.181 310.766)"/><path class="c" d="M102.019,123.2c13.451,0,24.019-12.009,24.019-26.9s-11.049-26.9-24.019-26.9C88.568,69.4,78,81.409,78,96.3S88.568,123.2,102.019,123.2Z" transform="translate(288.439 261.317)"/><path class="c" d="M136.236,50.308h0c0-.48-2.882-36.508-48.518-36.508C41.6,13.8,39.2,50.308,39.2,50.789V61.357a5.331,5.331,0,0,0,5.284,5.284h86.467a5.331,5.331,0,0,0,5.284-5.284Z" transform="translate(140.854 49.829)"/><path class="c" d="M68.119,54.5c13.45,0,24.019-12.009,24.019-26.9S81.089.7,68.119.7C54.668.7,44.1,12.709,44.1,27.6S54.668,54.5,68.119,54.5Z" transform="translate(159.492)"/><path class="c" d="M143.91,17.943a6.242,6.242,0,0,0-5.764-3.843,3.6,3.6,0,0,0-2.4.48C-42.956,92.4,13.248,273.983,13.728,275.9c.961,3.363,4.8,5.284,7.686,3.843a7.47,7.47,0,0,0,3.843-2.882,5.684,5.684,0,0,0,.48-4.8c0-.48-13.931-43.234-6.245-95.114C29.1,107.773,69.932,56.853,140.547,26.109A6.139,6.139,0,0,0,143.91,17.943Z" transform="translate(10.684 50.97)"/><path class="c" d="M74.652,14.58a4.331,4.331,0,0,0-2.4-.48,4.331,4.331,0,0,0-2.4.48,5.8,5.8,0,0,0-3.363,3.363,8.187,8.187,0,0,0,0,4.8,5.8,5.8,0,0,0,3.363,3.363c168.131,73.5,117.211,238.746,115.29,245.952a6.076,6.076,0,0,0,11.529,3.843C197.147,273.983,253.351,92.881,74.652,14.58Z" transform="translate(243.27 50.97)"/><path class="c" d="M201.142,93.634c-87.428,36.989-159.484.48-159.965,0a6.093,6.093,0,0,0-2.882-.48,2.888,2.888,0,0,0-1.922.48,7.471,7.471,0,0,0-3.843,2.882,5.684,5.684,0,0,0-.48,4.8,7.47,7.47,0,0,0,2.882,3.843c1.441.961,35.067,18.254,84.546,18.254a215.47,215.47,0,0,0,85.987-17.774,6,6,0,0,0,3.363-8.166A5.445,5.445,0,0,0,201.142,93.634Z" transform="translate(112.456 351.412)"/></g></svg>